<svg width="32" height="32" viewBox="0 0 32 32" fill="none" xmlns="http://www.w3.org/2000/svg">
<path d="M31.3333 16C31.3333 7.163 24.3196 0 15.6667 0V5.818C16.5057 5.81906 17.31 6.15991 17.9033 6.7658C18.4965 7.37169 18.8303 8.19315 18.8313 9.05C18.8308 9.9072 18.4973 10.7292 17.904 11.3355C17.3106 11.9418 16.506 12.2829 15.6667 12.284V19.718C16.5058 19.7191 17.3103 20.0601 17.9036 20.6662C18.4969 21.2723 18.8305 22.094 18.8313 22.951C18.8298 23.8075 18.4958 24.6285 17.9026 25.2339C17.3094 25.8394 16.5053 26.1799 15.6667 26.181V32C18.8176 32 21.7512 31.05 24.2079 29.414C28.4967 26.56 31.3333 21.618 31.3333 16ZM22.4719 12.768C23.3107 12.7693 24.1148 13.1103 24.7078 13.7162C25.3009 14.322 25.6345 15.1433 25.6356 16C25.6345 16.8569 25.3008 17.6783 24.7075 18.2842C24.1142 18.8901 23.3099 19.2309 22.4709 19.232C21.6317 19.2312 20.8271 18.8905 20.2336 18.2846C19.6402 17.6786 19.3063 16.857 19.3052 16C19.3063 15.143 19.6402 14.3214 20.2336 13.7154C20.8271 13.1095 21.6327 12.7688 22.4719 12.768Z" fill="#CE080F"/>
<path d="M15.6667 32H31.3333V29.414H24.2079C21.6677 31.106 18.6994 32.0047 15.6667 32ZM15.6667 26.182C14.8277 26.1809 14.0233 25.8401 13.4301 25.2342C12.8368 24.6283 12.503 23.8068 12.502 22.95C12.5025 22.0928 12.836 21.2708 13.4294 20.6645C14.0227 20.0582 14.8273 19.717 15.6667 19.716V12.282C14.8277 12.2809 14.0233 11.9401 13.4301 11.3342C12.8368 10.7283 12.503 9.90685 12.502 9.04999C12.5028 8.19297 12.8364 7.37125 13.4297 6.76515C14.023 6.15905 14.8275 5.81806 15.6667 5.817V0C7.01377 0 0 7.163 0 16C0 24.837 7.01377 32 15.6667 32V26.182ZM8.86146 19.232C8.02246 19.2309 7.21811 18.8901 6.62485 18.2842C6.03158 17.6783 5.69783 16.8568 5.69679 16C5.69783 15.1431 6.03158 14.3217 6.62485 13.7158C7.21811 13.1099 8.02246 12.7691 8.86146 12.768C9.7008 12.7685 10.5056 13.1091 11.0993 13.7151C11.693 14.321 12.027 15.1428 12.0281 16C12.027 16.8568 11.6933 17.6783 11.1 18.2842C10.5068 18.8901 9.70242 19.2309 8.86342 19.232H8.86146Z" fill="#E30B13"/>
</svg>
